<?xml version="1.0" encoding="UTF-8"?>
<svg id="uuid-ff94f6d8-7293-49c5-84f8-e92913b981b3" data-name="Layer 2" xmlns="http://www.w3.org/2000/svg" width="1445.65866" height="1991" viewBox="0 0 1445.65866 1991">
  <g id="uuid-e10ca4f5-9b48-438a-8cbc-2505b26a3af1" data-name="Layer 1">
    <path d="M642.23958,1765.17358c-6.2556,1.99476-14.80208,3.71893-25.4538,5.09775-5.07332,.60354-10.70058,.96093-17.32596,.96093-11.04557,0-23.07723-.89929-34.67673-1.78581h-.41864c-10.75094-.82526-20.99604-1.61294-30.73683-1.61294-6.99442,0-13.38531,.38144-19.54244,1.2191-18.22488,2.2285-32.64515,7.95497-32.64515,7.95497l.14731-1.45323c3.52277-36.64706,34.29567-67.87619,71.5955-72.90066,3.41078-.38144,6.89596-.57836,10.51644-.57836,35.05855,0,69.08289,26.61052,79.21751,61.9156l.27133,.93612-.94852,.24653Zm42.93986,15.5161l-.03683-.49268c-.18489-2.33974-.60354-6.15714-1.09584-10.20828-.96055-7.48747-2.61107-14.78968-4.83958-21.89534-16.94415-53.43149-62.31019-87.89928-115.50793-87.89928-5.34465,0-10.82459,.35701-16.25493,1.05901-68.28243,8.77986-114.67065,70.69658-105.58301,140.8877,8.15264,63.54131,59.30603,107.14672,121.55458,107.14672,5.25822,0,10.70133-.38219,16.23013-1.05901,33.21186-4.18718,62.28538-18.102,84.1563-45.09471,1.23113-1.57686,1.83466-3.54682,1.60016-5.33225-.18414-1.51486-1.08306-2.98011-2.74561-4.23604-3.6573-2.58589-16.74723-8.95273-23.85289-12.38868-2.10599-1.00978-3.75576-1.80986-4.76517-2.27811-2.08194-1.10824-3.65805-1.58814-5.07408-1.58814-1.67457,0-3.32434,.86171-4.96284,2.77079-14.0625,16.40224-31.89354,25.01036-50.04477,27.37453-3.6325,.41864-7.12971,.66479-10.54124,.66479-33.17428,0-66.65671-22.23957-76.34789-52.69267l-.2345-.78843,.71402-.32018c1.68735-.88614,17.25231-8.07786,40.23108-8.07786,2.85684,0,5.72647,.13529,8.53371,.35701,6.63741,.5171,13.31165,1.34199,20.28127,2.25331,12.89301,1.71215,26.30387,3.43633,41.88085,3.43633,9.60549,0,19.05014-.62796,28.72929-2.00753,37.91614-7.32701,52.964-17.97911,53.12409-18.07757,5.38148-3.48443,5.13496-6.30483,4.8516-11.51344Z" style="fill: #0464a9;"/>
    <path d="M1279.85416,1674.1574c0-3.15223-2.6231-5.68926-5.76254-5.68926h-31.47565c-3.06654,0-5.67686,2.53704-5.67686,5.68926v223.45473c0,3.17703,2.61032,5.76292,5.67686,5.76292h31.47565c3.13945,0,5.76254-2.58589,5.76254-5.76292v-223.45473Z" style="fill: #0464a9;"/>
    <path d="M1258.38536,1588.80831c-15.56496,0-28.3347,12.73292-28.3347,28.33545s12.76974,28.29825,28.3347,28.29825c15.67619,0,28.39708-12.69646,28.39708-28.29825s-12.72089-28.33545-28.39708-28.33545Z" style="fill: #0464a9;"/>
    <path d="M842.4893,1702.61198c44.51597,0,79.41443,36.67186,79.41443,83.47872,0,47.08946-33.11264,82.57906-77.01306,82.57906-22.19034,0-42.74294-7.90574-57.75397-22.33803-15.52813-14.82651-24.06184-35.76017-24.06184-58.8126,0-46.79446,35.62526-84.90715,79.41443-84.90715Zm-1.35439,206.75711c1.95793,.08606,3.95268,.12289,5.99704,.12289,32.30091,0,62.33424-12.43754,84.57494-34.92326,22.63304-22.90474,35.04577-54.33079,35.04577-88.47802,0-70.61014-54.37927-125.88908-123.73348-125.88908-56.47323,0-104.19104,37.21377-118.78342,92.52953-2.42618,9.38339-5.02447,33.32272-5.02447,57.22446v175.24425c0,3.17703,2.59829,5.80012,5.77532,5.80012h31.16749c3.20183,0,5.83695-2.6231,5.83695-5.80012l-.0248-110.48346,1.68735,1.65015c15.29438,14.82613,43.62983,31.37682,77.4813,33.00253Z" style="fill: #0464a9;"/>
    <path d="M282.51912,1702.61198c44.45434,0,79.3528,36.67186,79.3528,83.47872,0,47.08946-33.08784,82.57906-77.00103,82.57906-22.22717,0-42.74294-7.90574-57.70474-22.33803-15.57736-14.82651-24.14827-35.76017-24.14827-58.8126,0-46.79446,35.68651-84.90715,79.50124-84.90715Zm-1.37919,206.75711c1.94515,.08606,4.05114,.12289,5.96022,.12289,32.34902,0,62.34626-12.43754,84.62304-34.92326,22.57216-22.90474,35.04652-54.33079,35.04652-88.47802,0-70.61014-54.38002-125.88908-123.79511-125.88908-56.44881,0-104.12941,37.21377-118.73419,92.52953-2.52464,9.38339-5.0365,33.32272-5.0365,57.22446v175.24425c0,3.17703,2.58589,5.80012,5.72609,5.80012h31.27836c3.17665,0,5.81215-2.6231,5.81215-5.80012l-.03683-110.48346,1.58814,1.65015c15.28235,14.82613,43.65426,31.37682,77.56811,33.00253Z" style="fill: #0464a9;"/>
    <path d="M996.74766,1870.20717c27.17798,24.81306,56.75659,39.01161,95.28829,39.01161h1.18152c66.39891-.44382,96.12558-36.7459,96.12558-72.54364,0-49.44198-46.74523-62.97536-61.0054-65.95546-4.5923-.92334-9.40782-1.83466-14.22259-2.78281-11.58747-2.21685-23.54473-4.54382-34.50461-7.61036-7.62201-2.03196-32.55871-10.34432-32.55871-28.98784,0-20.51539,22.7315-31.58614,44.15896-31.58614,17.9543,0,32.91572,3.02971,52.10191,17.97911,1.47765,1.18227,3.62047,2.58589,6.15714,2.58589,1.9459,0,3.75576-.62834,5.68889-2.09359,5.31985-3.92788,15.01103-12.11735,21.45152-18.50824,1.50246-1.57611,2.19243-3.165,2.10599-5.01207-.16009-2.67233-2.14282-4.90083-3.20183-5.77532-25.65073-20.30607-50.32812-28.60603-85.06724-28.72929h-.22172c-49.88543,0-87.43103,31.99276-87.43103,74.41514,0,33.60607,27.64548,57.49579,77.73986,67.32226l31.35239,6.00982c20.63828,3.80499,32.23853,14.74007,31.80786,30.00927-.38181,14.97457-18.69313,30.4779-48.80237,30.4779-24.54211,0-46.21535-9.62954-64.34177-26.0938l-.23375-.29538c-1.26796-1.14507-2.82002-2.53704-4.88843-2.53704-1.36717,0-2.96808,.65314-4.5938,1.95793-1.8963,1.52688-22.81793,18.1144-25.08402,20.42971-1.03421,1.12064-1.53928,2.26571-1.41602,3.48519,.03683,1.96995,1.28073,3.70653,2.4134,4.82717Z" style="fill: #0464a9;"/>
    <path d="M722.7987,1445.70826C323.66866,1445.72029,0,1122.00277,0,722.88476-.02443,323.61907,323.64386-.06125,722.87235,0c399.21647,.0124,722.85995,323.65626,722.78629,722.8235,.03683,399.17926-323.63146,722.85995-722.85995,722.88475Z" style="fill: #fff;"/>
    <path d="M1292.8817,353.32131c13.71752,44.47914,21.26662,91.56898,21.26662,140.48109,0,157.74617-77.65417,296.50308-195.5507,383.40498-205.18025,151.04675-504.15911,151.2805-917.01906,281.36879,124.62075,148.95316,311.85872,243.74841,521.27575,243.74841,375.22754,0,679.45184-304.24873,679.45184-679.47664,0-136.24505-40.29196-263.06988-109.42445-369.52662Z" style="fill: #0464a9;"/>
    <path d="M1130.33015,179.09022c-113.56128-85.27618-254.65831-135.76478-407.47884-135.76478C347.58619,43.32544,43.36189,347.611,43.36189,722.83929c0,151.00993,49.3315,290.49363,132.62495,403.28039,456.98246-133.00714,817.86489-491.47505,954.34331-947.02946Z" style="fill: #ee3237;"/>
  </g>
</svg>