<svg width="16" height="16" viewBox="0 0 16 16" fill="none" xmlns="http://www.w3.org/2000/svg">
<path d="M14.9999 7H3.82992L8.70992 2.12C9.09993 1.73 9.09993 1.09 8.70992 0.7C8.61741 0.607297 8.50752 0.533749 8.38655 0.483568C8.26558 0.433386 8.13589 0.407557 8.00492 0.407557C7.87396 0.407557 7.74427 0.433386 7.6233 0.483568C7.50233 0.533749 7.39244 0.607297 7.29992 0.7L0.709925 7.29C0.617221 7.38251 0.543674 7.4924 0.493492 7.61338C0.443311 7.73435 0.41748 7.86403 0.41748 7.995C0.41748 8.12597 0.443311 8.25565 0.493492 8.37662C0.543674 8.4976 0.617221 8.60749 0.709925 8.7L7.29992 15.29C7.39251 15.3826 7.50242 15.456 7.62338 15.5061C7.74435 15.5562 7.87399 15.582 8.00492 15.582C8.13586 15.582 8.2655 15.5562 8.38647 15.5061C8.50743 15.456 8.61734 15.3826 8.70992 15.29C8.80251 15.1974 8.87595 15.0875 8.92605 14.9665C8.97616 14.8456 9.00195 14.7159 9.00195 14.585C9.00195 14.4541 8.97616 14.3244 8.92605 14.2035C8.87595 14.0825 8.80251 13.9726 8.70992 13.88L3.82992 9H14.9999C15.5499 9 15.9999 8.55 15.9999 8C15.9999 7.45 15.5499 7 14.9999 7Z" fill="black"/>
</svg>
